<svg xmlns="http://www.w3.org/2000/svg" xmlns:xlink="http://www.w3.org/1999/xlink" version="1.1" x="0px" y="0px" viewBox="0 0 186.933 313.43875" style="enable-background:new 0 0 186.933 250.751;" xml:space="preserve"><g><path d="M70.916,233.517c-1.234,8.191,4.407,15.832,12.599,17.066c0.755,0.114,1.508,0.169,2.249,0.169   c7.299,0.001,13.697-5.334,14.817-12.77l5.217-34.664c-12.599-0.694-23.397-4.723-29.233-7.344L70.916,233.517z"/><path d="M85.178,138.735l-7.684,51.059c0.027,0.014,0.051,0.024,0.079,0.038c1.769,0.84,4.343,1.967,7.509,3.094   c5.709,2.038,13.347,4.046,21.614,4.419l5.476-36.385C101.157,159.012,91.531,150.726,85.178,138.735z"/><path d="M133.75,237.982c1.117,7.436,7.516,12.77,14.814,12.77c0.742,0,1.493-0.055,2.249-0.169   c8.192-1.233,13.833-8.874,12.601-17.066l-5.649-37.543c-5.835,2.621-16.636,6.648-29.231,7.343L133.75,237.982z"/><path d="M122.158,160.96l5.479,36.4c12.925-0.575,24.283-5.225,29.198-7.565l-7.684-51.055   C142.797,150.729,133.172,159.013,122.158,160.96z"/><path d="M49.205,133.861c-0.248,1.769-0.482,3.567-0.693,5.42c-0.627,5.488,3.314,10.444,8.802,11.07   c0.386,0.044,0.768,0.065,1.146,0.065c5.015,0,9.34-3.765,9.922-8.868c0.236-2.069,0.497-4.069,0.779-6.001   C65.138,137.739,54.918,136.698,49.205,133.861z"/><path d="M165.169,135.547c0.282,1.933,0.543,3.933,0.778,6.002c0.582,5.102,4.908,8.868,9.924,8.868   c0.379,0,0.762-0.021,1.147-0.065c5.486-0.626,9.43-5.582,8.803-11.068c-0.212-1.854-0.447-3.653-0.695-5.422   C179.411,136.698,169.19,137.739,165.169,135.547z"/><path d="M186.887,125.844c-3.643-20.239-9.878-34.751-16.826-44.987c-2.784-4.103-5.682-7.522-8.574-10.343   c-4.506-4.422-8.887-7.289-12.533-9.142c1.664-5.423,2.04-11.212,1.932-16.01c-0.14-6.117-1.053-10.612-1.053-10.612h-6   c0,0-12,21.25-26.666,21.25C102.498,56,90.5,34.75,90.5,34.75h-6c0,0-0.913,4.495-1.053,10.612   c-0.108,4.797,0.267,10.587,1.932,16.009c-3.646,1.854-8.027,4.721-12.535,9.143c-2.895,2.824-5.797,6.248-8.583,10.355   c-6.944,10.236-13.175,24.744-16.815,44.975c-1.086,5.995,17.269,9.674,23.549,6.813c1.121-0.511,1.863-1.227,2.035-2.178   c1.271-6.969,2.828-12.879,4.533-17.899c-0.256-2.589-0.396-5.23-0.396-7.919c0-4.072,1.359-7.61,3.709-10.625   c-0.568,1.748-0.876,3.621-0.876,5.625c0,5.276,0.481,10.378,1.363,15.225c0.502,0.144,1.145,0.326,1.92,0.537   c2.042,0.556,4.966,1.295,8.462,2.036c6.996,1.483,16.299,2.959,25.421,2.957c13.687,0.006,27.761-3.327,33.882-4.993   c0.775-0.211,1.42-0.393,1.922-0.538c0.882-4.847,1.363-9.948,1.363-15.224c0-2.005-0.309-3.879-0.877-5.627   c2.351,3.015,3.711,6.554,3.711,10.627c0,2.689-0.141,5.331-0.396,7.921c1.705,5.021,3.26,10.93,4.531,17.897   c0.172,0.952,0.916,1.668,2.037,2.178C169.621,135.518,187.973,131.838,186.887,125.844z M149.928,81.387   c-0.45,0.123-15.966,6.454-32.763,6.529c-16.796-0.075-32.311-6.406-32.765-6.527c-3.852-1.528-5.734-5.887-4.207-9.737   c1.524-3.851,5.884-5.736,9.734-4.209c0,0,0.011,0.004,0.099,0.039c0.087,0.033,0.229,0.088,0.423,0.159   c0.387,0.142,0.973,0.354,1.729,0.613c1.517,0.517,3.716,1.216,6.337,1.912c5.24,1.402,12.217,2.76,18.649,2.748   c12.118,0.064,25.868-4.896,27.138-5.433c0.087-0.035,0.098-0.039,0.098-0.039v0.002c3.851-1.527,8.209,0.356,9.735,4.207   C155.662,75.502,153.779,79.86,149.928,81.387z"/><path d="M95.756,39.347c-0.049-0.528-0.09-1.058-0.09-1.597c0-10.678,9.625-19.333,21.5-19.333c11.873,0,21.5,8.655,21.5,19.333   c0,0.539-0.041,1.068-0.09,1.596c3.298-4.131,5.256-7.596,5.256-7.596h3.183c-1.21-12.085-9.592-22.055-20.826-25.594L124.416,0   h-14.5l-1.773,6.156C96.909,9.695,88.527,19.665,87.317,31.75H90.5C90.5,31.75,92.458,35.215,95.756,39.347z M117.166,3.25   c2.416,0,4.375,1.959,4.375,4.375c0,2.416-1.959,4.375-4.375,4.375s-4.375-1.959-4.375-4.375   C112.791,5.209,114.75,3.25,117.166,3.25z"/><path d="M117.165,124.417c-14.27-0.012-28.548-3.404-34.88-5.121c5.233,21.668,18.874,37.12,34.881,37.12   c16.006,0,29.648-15.453,34.88-37.122C145.717,121.012,131.438,124.405,117.165,124.417z"/><rect x="102.778" y="36.5" transform="matrix(0.7071 -0.7071 0.7071 0.7071 7.9769 93.7581)" width="28.773" height="1.5"/><rect x="105.938" y="33.967" transform="matrix(0.7071 -0.7071 0.7071 0.7071 9.0259 91.2251)" width="17.386" height="1.5"/><rect x="111.007" y="39.034" transform="matrix(0.7071 -0.7071 0.7071 0.7071 6.9274 96.2927)" width="17.385" height="1.5"/><path d="M57.311,154.819l-2.962-0.472l-1.653,10.386l-4.862-0.782l-2.938,18.266l4.893,0.787l-7.173,45.075   c-1.185-1.376-2.746-2.573-4.545-3.563c-4.081-2.244-9.55-3.571-15.572-3.577c-6.022,0.006-11.491,1.333-15.573,3.577   c-4.045,2.225-6.902,5.5-6.926,9.497c0.023,3.992,2.881,7.269,6.926,9.495c4.082,2.242,9.551,3.569,15.573,3.575   c6.023-0.006,11.491-1.333,15.572-3.575c4.046-2.227,6.903-5.503,6.927-9.495c-0.004-0.591-0.076-1.164-0.198-1.723l0.179,0.028   L57.311,154.819z M36.623,240.879c-3.517,1.945-8.55,3.208-14.124,3.203c-5.574,0.005-10.606-1.258-14.125-3.203   c-3.557-1.963-5.399-4.472-5.374-6.865c-0.025-2.395,1.819-4.906,5.374-6.869c3.519-1.945,8.551-3.208,14.125-3.203   c5.574-0.005,10.607,1.258,14.124,3.203c3.555,1.963,5.4,4.474,5.375,6.869C42.023,236.407,40.178,238.916,36.623,240.879z"/></g><text x="0" y="265.751" fill="#000000" font-size="5px" font-weight="bold" font-family="'Helvetica Neue', Helvetica, Arial-Unicode, Arial, Sans-serif">Created by Gan Khoon Lay</text><text x="0" y="270.751" fill="#000000" font-size="5px" font-weight="bold" font-family="'Helvetica Neue', Helvetica, Arial-Unicode, Arial, Sans-serif">from the Noun Project</text></svg>